<svg width="163" height="77" viewBox="0 0 163 77" fill="none" xmlns="http://www.w3.org/2000/svg">
<path d="M0.0250015 18.943H12.4538C13.8543 18.943 15.4298 19.1184 16.8302 19.2938C18.2306 19.4692 19.631 19.9954 20.8564 20.5216C22.0818 21.2232 22.9571 21.9248 23.6573 23.1526C24.3575 24.205 24.7076 25.7835 24.7076 27.5375C24.7076 29.4669 24.1824 31.0455 23.1321 32.2733C22.0818 33.5011 20.6814 34.3781 18.9308 34.9043V35.0797C19.9812 35.2551 21.0315 35.6059 21.9067 35.9567C22.782 36.4829 23.6573 37.0091 24.1824 37.7106C24.8827 38.4122 25.4078 39.2892 25.7579 40.1662C26.108 41.0432 26.2831 42.0956 26.2831 43.148C26.2831 44.902 25.933 46.3052 25.2328 47.533C24.5326 48.7608 23.4822 49.6378 22.2569 50.3393C21.0315 51.0409 19.631 51.5671 18.2306 51.9179C16.6551 52.2687 15.2547 52.4441 13.6792 52.4441H0.0250015V18.943ZM7.37727 32.4487H12.8039C13.3291 32.4487 13.8543 32.4487 14.5545 32.2733C15.0796 32.0979 15.6048 31.9225 16.13 31.5717C16.6551 31.2209 17.0052 30.8701 17.1803 30.5193C17.5304 29.9931 17.5304 29.4669 17.5304 28.7653C17.5304 28.0637 17.3553 27.5375 17.0052 27.0113C16.6551 26.4851 16.305 26.1343 15.7799 25.9589C15.2547 25.7835 14.7295 25.6081 14.2044 25.4327C13.6792 25.2573 12.979 25.2573 12.4538 25.2573H7.37727V32.4487ZM7.37727 46.3052H14.0293C14.5545 46.3052 15.2547 46.3052 15.7799 46.1298C16.305 45.9544 16.8302 45.779 17.3553 45.4282C17.8805 45.0774 18.2306 44.7266 18.5807 44.2004C18.9308 43.6742 19.1059 43.148 19.1059 42.271C19.1059 41.5694 18.9308 40.8678 18.5807 40.3416C18.2306 39.8154 17.7055 39.4646 17.0052 39.2892C16.4801 39.1138 15.7799 38.9384 15.0796 38.763C14.3794 38.5876 13.6792 38.5876 13.154 38.5876H7.55232V46.3052H7.37727Z" fill="#212121"/>
<path d="M51.4906 48.5854C50.4403 49.9886 48.8648 51.2164 47.1142 51.918C45.3637 52.6195 43.6132 53.1457 41.6876 53.1457C39.937 53.1457 38.1865 52.7949 36.786 52.2687C35.2106 51.7426 33.8101 50.8656 32.7598 49.8132C31.5344 48.7608 30.6592 47.533 29.9589 45.9544C29.2587 44.5512 28.9086 42.7972 28.9086 41.0432C28.9086 39.2893 29.2587 37.5353 29.9589 36.1321C30.6592 34.7289 31.5344 33.3257 32.7598 32.2733C33.9852 31.2209 35.2106 30.3439 36.786 29.8177C38.3615 29.2915 39.937 28.9407 41.6876 28.9407C43.263 28.9407 44.8385 29.2915 46.239 29.8177C47.6394 30.3439 48.6897 31.2209 49.565 32.2733C50.4403 33.3257 51.1405 34.5535 51.6656 36.1321C52.1908 37.5353 52.3659 39.2893 52.3659 41.0432V43.3234H35.9108C36.2609 44.7266 36.786 45.779 37.8364 46.4806C38.8867 47.1822 39.937 47.7084 41.3375 47.7084C42.5628 47.7084 43.4381 47.533 44.3134 47.0068C45.1886 46.4806 45.8888 45.779 46.414 45.0774L51.4906 48.5854ZM45.5387 38.4123C45.5387 37.1845 45.1886 36.1321 44.3134 35.2551C43.4381 34.3781 42.3878 34.0273 41.1624 34.0273C40.4622 34.0273 39.762 34.2027 39.0617 34.3781C38.5366 34.5535 38.0114 34.9043 37.4863 35.4305C37.1362 35.7813 36.786 36.3075 36.4359 36.8337C36.2609 37.3599 36.0858 37.8861 36.0858 38.4123H45.5387Z" fill="#212121"/>
<path d="M56.9172 16.6628H63.9194V52.6196H56.9172V16.6628Z" fill="#212121"/>
<path d="M69.171 16.6628H76.3483V52.6196H69.171V16.6628Z" fill="#212121"/>
<path d="M88.602 16.6628V32.6241H88.7771C88.9522 32.0979 89.1272 31.7471 89.6524 31.2209C90.0025 30.6947 90.5276 30.3439 91.0528 29.9931C91.578 29.6423 92.2782 29.2915 92.9784 29.1161C93.6786 28.9407 94.5539 28.7653 95.4291 28.7653C97.1797 28.7653 98.7552 29.1161 99.8055 29.6423C100.856 30.1685 101.731 31.0455 102.431 31.9225C103.132 32.9749 103.482 34.0273 103.657 35.4305C103.832 36.8337 104.007 38.2369 104.007 39.8155V52.6196H97.0046V41.3941C97.0046 40.6925 97.0046 39.9909 97.0046 39.2893C97.0046 38.5877 96.8296 37.8861 96.6545 37.3599C96.4795 36.8337 96.1294 36.3075 95.6042 35.9567C95.079 35.6059 94.3788 35.4305 93.5036 35.4305C92.6283 35.4305 91.9281 35.6059 91.2279 35.9567C90.5276 36.3075 90.1775 36.6583 90.0025 37.3599C89.6524 37.8861 89.4773 38.5877 89.4773 39.2893C89.3023 39.9909 89.3023 40.6925 89.3023 41.3941V52.6196H82.3001V16.6628H88.602Z" fill="#212121"/>
<path d="M107.683 41.0432C107.683 39.2893 108.033 37.5353 108.733 36.1321C109.433 34.7289 110.309 33.3257 111.534 32.2733C112.76 31.2209 113.985 30.3439 115.56 29.8177C117.136 29.2915 118.711 28.9407 120.462 28.9407C122.212 28.9407 123.963 29.2915 125.363 29.8177C126.939 30.3439 128.339 31.2209 129.39 32.2733C130.44 33.3257 131.49 34.5535 132.191 36.1321C132.891 37.5353 133.241 39.2893 133.241 41.0432C133.241 42.7972 132.891 44.5512 132.191 45.9544C131.49 47.3576 130.615 48.7608 129.39 49.8132C128.164 50.8656 126.939 51.7426 125.363 52.2687C123.788 52.7949 122.212 53.1457 120.462 53.1457C118.711 53.1457 116.961 52.7949 115.56 52.2687C113.985 51.7426 112.584 50.8656 111.534 49.8132C110.309 48.7608 109.433 47.533 108.733 45.9544C108.033 44.5512 107.683 42.7972 107.683 41.0432ZM114.86 41.0432C114.86 42.7972 115.385 44.2004 116.436 45.2528C117.486 46.3052 118.886 46.8314 120.637 46.8314C122.387 46.8314 123.788 46.3052 124.838 45.2528C125.889 44.2004 126.414 42.7972 126.414 41.0432C126.414 39.2893 125.889 37.8861 124.838 36.8337C123.788 35.7813 122.387 35.2551 120.637 35.2551C118.886 35.2551 117.486 35.7813 116.436 36.8337C115.385 37.8861 114.86 39.2893 114.86 41.0432Z" fill="#212121"/>
<path d="M138.142 29.4669H144.619V32.4487H144.794C145.144 32.0979 145.495 31.5717 145.845 31.2209C146.37 30.8701 146.895 30.3439 147.42 29.9931C148.12 29.6423 148.646 29.2915 149.346 29.1161C150.046 28.9407 150.921 28.7653 151.621 28.7653C153.372 28.7653 154.947 29.1161 156.173 29.6423C157.398 30.1685 158.799 31.0455 159.674 32.0979C160.724 33.1503 161.424 34.3781 161.95 35.7813C162.475 37.1845 162.825 38.763 162.825 40.517C162.825 42.0956 162.65 43.6742 162.125 45.0774C161.6 46.4806 160.899 47.8838 160.024 48.9362C159.149 49.9886 158.098 51.0409 156.698 51.7425C155.473 52.4441 153.897 52.7949 152.322 52.7949C150.921 52.7949 149.521 52.6195 148.12 52.0933C146.895 51.5671 145.845 50.8655 144.969 49.8132H144.794V63.1434H137.792V29.4669H138.142ZM144.619 41.0432C144.619 42.7972 145.144 44.2004 146.195 45.2528C147.245 46.3052 148.646 46.8314 150.396 46.8314C152.147 46.8314 153.547 46.3052 154.597 45.2528C155.648 44.2004 156.173 42.7972 156.173 41.0432C156.173 39.2892 155.648 37.886 154.597 36.8337C153.547 35.7813 152.147 35.2551 150.396 35.2551C148.646 35.2551 147.245 35.7813 146.195 36.8337C145.144 37.886 144.619 39.2892 144.619 41.0432Z" fill="#212121"/>
</svg>
