<svg width="14" height="14" viewBox="0 0 14 14" fill="none" xmlns="http://www.w3.org/2000/svg">
<path d="M8.64464 6.99907L13.6572 1.99819C13.8767 1.77868 14 1.48097 14 1.17054C14 0.860107 13.8767 0.562392 13.6572 0.342885C13.4377 0.123379 13.14 6.10352e-05 12.8295 6.10352e-05C12.5191 6.10352e-05 12.2214 0.123379 12.0019 0.342885L7.001 5.35542L2.00012 0.342885C1.78061 0.123379 1.48289 6.10328e-05 1.17247 6.10352e-05C0.862036 6.10375e-05 0.564321 0.123379 0.344814 0.342885C0.125307 0.562392 0.0019894 0.860107 0.00198939 1.17054C0.00198939 1.48097 0.125307 1.77868 0.344814 1.99819L5.35735 6.99907L0.344814 11.9999C0.235554 12.1083 0.148832 12.2372 0.0896511 12.3793C0.0304698 12.5213 0 12.6737 0 12.8276C0 12.9815 0.0304698 13.1338 0.0896511 13.2759C0.148832 13.418 0.235554 13.5469 0.344814 13.6552C0.453181 13.7645 0.58211 13.8512 0.724162 13.9104C0.866214 13.9696 1.01858 14.0001 1.17247 14.0001C1.32635 14.0001 1.47872 13.9696 1.62077 13.9104C1.76282 13.8512 1.89175 13.7645 2.00012 13.6552L7.001 8.64271L12.0019 13.6552C12.1102 13.7645 12.2392 13.8512 12.3812 13.9104C12.5233 13.9696 12.6756 14.0001 12.8295 14.0001C12.9834 14.0001 13.1358 13.9696 13.2778 13.9104C13.4199 13.8512 13.5488 13.7645 13.6572 13.6552C13.7664 13.5469 13.8532 13.418 13.9123 13.2759C13.9715 13.1338 14.002 12.9815 14.002 12.8276C14.002 12.6737 13.9715 12.5213 13.9123 12.3793C13.8532 12.2372 13.7664 12.1083 13.6572 11.9999L8.64464 6.99907Z" fill="#212121"/>
</svg>
