<svg width="267" height="81" viewBox="0 0 267 81" fill="none" xmlns="http://www.w3.org/2000/svg">
<path d="M40.3157 81C62.5815 81 80.6314 62.8675 80.6314 40.5C80.6314 18.1325 62.5815 0 40.3157 0C18.05 0 0 18.1325 0 40.5C0 62.8675 18.05 81 40.3157 81Z" fill="#3A0751"/>
<path d="M45.9966 17.4886H34.8181V23.0114H45.9966V17.4886Z" fill="white"/>
<path d="M58.0913 47.1273H23.0899V52.65H58.0913V47.1273Z" fill="white"/>
<path d="M57.908 43.8137H52.4104C52.4104 37.1864 47.0961 31.8477 40.499 31.8477C33.9019 31.8477 28.5875 37.1864 28.5875 43.8137H23.0899C23.0899 34.2409 30.9698 26.325 40.499 26.325C50.0281 26.325 57.908 34.2409 57.908 43.8137Z" fill="white"/>
<path d="M96.3912 18.225H109.402C110.868 18.225 112.518 18.4091 113.984 18.5932C115.45 18.7773 116.916 19.3296 118.198 19.8818C119.481 20.6182 120.397 21.3546 121.13 22.6432C121.863 23.7477 122.23 25.4046 122.23 27.2455C122.23 29.2705 121.68 30.9273 120.581 32.2159C119.481 33.5046 118.015 34.425 116.183 34.9773C117.282 35.1614 118.382 35.5296 119.298 35.8977C120.214 36.45 121.13 37.0023 121.68 37.7386C122.413 38.475 122.963 39.3955 123.329 40.3159C123.696 41.2364 123.879 42.3409 123.879 43.4455C123.879 45.2864 123.513 46.7591 122.78 48.0477C122.047 49.3364 120.947 50.2568 119.664 50.9932C118.382 51.7296 116.916 52.2818 115.45 52.65C113.8 53.0182 112.334 53.2023 110.685 53.2023H96.3912V18.225ZM104.088 32.2159H109.769C110.318 32.2159 110.868 32.2159 111.601 32.0318C112.151 31.8477 112.701 31.6636 113.251 31.2955C113.8 30.9273 114.167 30.5591 114.35 30.1909C114.717 29.6386 114.717 29.0864 114.717 28.35C114.717 27.6136 114.533 27.0614 114.167 26.5091C113.8 25.9568 113.434 25.5886 112.884 25.4046C112.334 25.2205 111.784 25.0364 111.235 24.8523C110.685 24.6682 109.952 24.6682 109.402 24.6682H104.088V32.2159ZM104.088 46.9432H111.051C111.601 46.9432 112.334 46.9432 112.884 46.7591C113.434 46.575 113.984 46.3909 114.533 46.0227C115.083 45.6546 115.45 45.2864 115.816 44.7341C116.183 44.1818 116.366 43.6296 116.366 42.7091C116.366 41.9727 116.183 41.2364 115.816 40.6841C115.45 40.1318 114.9 39.7636 114.167 39.5796C113.617 39.3955 112.884 39.2114 112.151 39.0273C111.418 38.8432 110.685 38.8432 110.135 38.8432H104.271V46.9432H104.088Z" fill="#212121"/>
<path d="M150.268 49.3364C149.168 50.8091 147.519 52.0978 145.686 52.8341C143.854 53.5705 142.021 54.1227 140.005 54.1227C138.173 54.1227 136.34 53.7546 134.874 53.2023C133.225 52.65 131.759 51.7296 130.66 50.625C129.377 49.5205 128.461 48.2318 127.728 46.575C126.995 45.1023 126.628 43.2614 126.628 41.4205C126.628 39.5796 126.995 37.7387 127.728 36.2659C128.461 34.7932 129.377 33.3205 130.66 32.2159C131.942 31.1114 133.225 30.1909 134.874 29.6387C136.524 29.0864 138.173 28.7182 140.005 28.7182C141.655 28.7182 143.304 29.0864 144.77 29.6387C146.236 30.1909 147.336 31.1114 148.252 32.2159C149.168 33.3205 149.901 34.6091 150.451 36.2659C151.001 37.7387 151.184 39.5796 151.184 41.4205V43.8137H133.958C134.325 45.2864 134.874 46.3909 135.974 47.1273C137.073 47.8637 138.173 48.4159 139.639 48.4159C140.922 48.4159 141.838 48.2318 142.754 47.6796C143.671 47.1273 144.404 46.3909 144.953 45.6546L150.268 49.3364ZM144.037 38.6591C144.037 37.3705 143.671 36.2659 142.754 35.3455C141.838 34.425 140.739 34.0568 139.456 34.0568C138.723 34.0568 137.99 34.2409 137.257 34.425C136.707 34.6091 136.157 34.9773 135.607 35.5296C135.241 35.8977 134.874 36.45 134.508 37.0023C134.325 37.5546 134.141 38.1068 134.141 38.6591H144.037Z" fill="#212121"/>
<path d="M155.949 15.8318H163.279V53.3864H155.949V15.8318Z" fill="#212121"/>
<path d="M168.776 15.8318H176.29V53.3864H168.776V15.8318Z" fill="#212121"/>
<path d="M188.934 15.8318V32.5841H189.117C189.301 32.0318 189.484 31.6636 190.034 31.1114C190.4 30.5591 190.95 30.1909 191.5 29.8227C192.049 29.4545 192.782 29.0864 193.515 28.9023C194.248 28.7182 195.165 28.5341 196.081 28.5341C197.914 28.5341 199.563 28.9023 200.662 29.4545C201.762 30.0068 202.678 30.9273 203.411 31.8477C204.144 32.9523 204.511 34.0568 204.694 35.5295C204.877 37.0023 205.06 38.475 205.06 40.1318V53.3864H197.73V41.6045C197.73 40.8682 197.73 40.1318 197.73 39.3955C197.73 38.6591 197.547 37.9227 197.364 37.3705C197.18 36.8182 196.814 36.2659 196.264 35.8977C195.714 35.5295 194.981 35.3455 194.065 35.3455C193.149 35.3455 192.416 35.5295 191.683 35.8977C190.95 36.2659 190.583 36.6341 190.4 37.3705C190.034 37.9227 189.85 38.6591 189.85 39.3955C189.667 40.1318 189.667 40.8682 189.667 41.6045V53.3864H182.337V15.8318H188.934Z" fill="#212121"/>
<path d="M209.092 41.4205C209.092 39.5796 209.458 37.7387 210.191 36.2659C210.925 34.7932 211.841 33.3205 213.124 32.2159C214.406 31.1114 215.689 30.1909 217.338 29.6387C218.988 29.0864 220.637 28.7182 222.469 28.7182C224.302 28.7182 226.135 29.0864 227.601 29.6387C229.25 30.1909 230.716 31.1114 231.815 32.2159C232.915 33.3205 234.014 34.6091 234.747 36.2659C235.48 37.7387 235.847 39.5796 235.847 41.4205C235.847 43.2614 235.48 45.1023 234.747 46.575C234.014 48.0477 233.098 49.5205 231.815 50.625C230.533 51.7296 229.25 52.65 227.601 53.2023C225.951 53.7546 224.302 54.1227 222.469 54.1227C220.637 54.1227 218.804 53.7546 217.338 53.2023C215.689 52.65 214.223 51.7296 213.124 50.625C211.841 49.5205 210.925 48.2318 210.191 46.575C209.458 45.1023 209.092 43.2614 209.092 41.4205ZM216.605 41.4205C216.605 43.2614 217.155 44.7341 218.255 45.8387C219.354 46.9432 220.82 47.4955 222.653 47.4955C224.485 47.4955 225.951 46.9432 227.051 45.8387C228.15 44.7341 228.7 43.2614 228.7 41.4205C228.7 39.5796 228.15 38.1068 227.051 37.0023C225.951 35.8977 224.485 35.3455 222.653 35.3455C220.82 35.3455 219.354 35.8977 218.255 37.0023C216.972 38.1068 216.605 39.5796 216.605 41.4205Z" fill="#212121"/>
<path d="M240.795 29.2705H247.575V32.4H247.758C248.125 32.0318 248.491 31.4795 248.858 31.1114C249.408 30.7432 249.957 30.1909 250.507 29.8227C251.24 29.4545 251.79 29.0864 252.523 28.9023C253.256 28.7182 254.172 28.5341 254.905 28.5341C256.738 28.5341 258.387 28.9023 259.67 29.4545C261.136 30.0068 262.419 30.9273 263.335 32.0318C264.434 33.1364 265.167 34.425 265.717 35.8977C266.267 37.3705 266.634 39.0273 266.634 40.8682C266.634 42.525 266.45 44.1818 265.901 45.6545C265.351 47.1273 264.618 48.6 263.701 49.7045C262.785 50.8091 261.686 51.9136 260.22 52.65C258.937 53.3864 257.288 53.7546 255.638 53.7546C254.172 53.7546 252.706 53.5705 251.24 53.0182C249.957 52.4659 248.858 51.7295 247.942 50.625H247.758V64.6159H240.428V29.2705H240.795ZM247.758 41.4205C247.758 43.2614 248.308 44.7341 249.408 45.8386C250.507 46.9432 251.973 47.4955 253.806 47.4955C255.638 47.4955 257.104 46.9432 258.204 45.8386C259.303 44.7341 259.853 43.2614 259.853 41.4205C259.853 39.5795 259.303 38.1068 258.204 37.0023C257.104 35.8977 255.638 35.3455 253.806 35.3455C251.973 35.3455 250.507 35.8977 249.408 37.0023C248.308 38.1068 247.758 39.5795 247.758 41.4205Z" fill="#212121"/>
</svg>
