<svg width="266" height="75" viewBox="0 0 266 75" fill="none" xmlns="http://www.w3.org/2000/svg">
<g clip-path="url(#clip0)">
<path d="M101.232 16.6468H113.798C115.214 16.6468 116.806 16.8258 118.222 17.0048C119.638 17.1838 121.054 17.7208 122.293 18.2578C123.532 18.9738 124.417 19.6897 125.124 20.9427C125.832 22.0167 126.186 23.6277 126.186 25.4177C126.186 27.3866 125.655 28.9976 124.593 30.2506C123.532 31.3246 122.116 32.2196 120.346 32.7566V32.9356C121.408 33.1146 122.47 33.4726 123.355 33.8306C124.24 34.3676 125.124 34.9045 125.655 35.6205C126.363 36.3365 126.894 37.2315 127.248 38.1265C127.602 39.0215 127.779 40.0955 127.779 41.1695C127.779 42.9594 127.425 44.3914 126.717 45.6444C126.009 46.8974 124.947 47.7924 123.709 48.5084C122.47 49.2243 121.054 49.7613 119.638 50.1193C118.045 50.4773 116.629 50.6563 115.037 50.6563H101.232V16.6468ZM108.665 30.2506H114.152C114.683 30.2506 115.214 30.2506 115.921 30.0716C116.452 29.8926 116.983 29.7136 117.514 29.3556C118.045 28.9976 118.399 28.6396 118.576 28.2816C118.93 27.7446 118.93 27.2076 118.93 26.4917C118.93 25.7757 118.753 25.2387 118.399 24.7017C118.045 24.1647 117.691 23.8067 117.16 23.6277C116.629 23.4487 116.098 23.2697 115.568 23.0907C115.037 22.9117 114.329 22.9117 113.798 22.9117H108.665V30.2506ZM108.665 44.3914H115.391C115.921 44.3914 116.629 44.3914 117.16 44.2124C117.691 44.0334 118.222 43.8544 118.753 43.4964C119.284 43.1384 119.638 42.7804 119.992 42.2434C120.346 41.7065 120.523 41.1695 120.523 40.2745C120.523 39.5585 120.346 38.8425 119.992 38.3055C119.638 37.7685 119.107 37.4105 118.399 37.2315C117.868 37.0525 117.16 36.8735 116.452 36.6945C115.745 36.5155 115.037 36.5155 114.506 36.5155H108.842V44.3914H108.665Z" fill="#212121"/>
<path d="M153.264 46.7184C152.202 48.1504 150.609 49.4034 148.84 50.1193C147.07 50.8353 145.3 51.3723 143.353 51.3723C141.584 51.3723 139.814 51.0143 138.398 50.4773C136.805 49.9403 135.389 49.0454 134.327 47.9714C133.089 46.8974 132.204 45.6444 131.496 44.0334C130.788 42.6014 130.434 40.8115 130.434 39.0215C130.434 37.2315 130.788 35.4415 131.496 34.0096C132.204 32.5776 133.089 31.1456 134.327 30.0716C135.566 28.9976 136.805 28.1026 138.398 27.5656C139.991 27.0286 141.584 26.6707 143.353 26.6707C144.946 26.6707 146.539 27.0286 147.955 27.5656C149.371 28.1026 150.432 28.9976 151.317 30.0716C152.202 31.1456 152.91 32.3986 153.441 34.0096C153.972 35.4415 154.149 37.2315 154.149 39.0215V41.3485H137.513C137.867 42.7804 138.398 43.8544 139.46 44.5704C140.522 45.2864 141.584 45.8234 142.999 45.8234C144.238 45.8234 145.123 45.6444 146.008 45.1074C146.893 44.5704 147.601 43.8544 148.132 43.1384L153.264 46.7184ZM147.247 36.3365C147.247 35.0835 146.893 34.0096 146.008 33.1146C145.123 32.2196 144.061 31.8616 142.822 31.8616C142.114 31.8616 141.407 32.0406 140.699 32.2196C140.168 32.3986 139.637 32.7566 139.106 33.2936C138.752 33.6516 138.398 34.1886 138.044 34.7255C137.867 35.2625 137.69 35.7995 137.69 36.3365H147.247Z" fill="#212121"/>
<path d="M158.751 14.3198H165.83V50.8353H158.751V14.3198Z" fill="#212121"/>
<path d="M171.316 14.3198H178.572V50.8353H171.316V14.3198Z" fill="#212121"/>
<path d="M190.784 14.3198V30.4296H190.961C191.138 29.8926 191.315 29.5346 191.846 28.9976C192.2 28.4606 192.731 28.1026 193.261 27.7446C193.792 27.3866 194.5 27.0287 195.208 26.8497C195.916 26.6707 196.801 26.4917 197.686 26.4917C199.456 26.4917 201.049 26.8497 202.11 27.3866C203.172 27.9236 204.057 28.8186 204.765 29.7136C205.473 30.7876 205.827 31.8616 206.004 33.2936C206.181 34.7256 206.358 36.1575 206.358 37.7685V50.6563H199.279V39.2005C199.279 38.4845 199.279 37.7685 199.279 37.0525C199.279 36.3365 199.102 35.6205 198.925 35.0835C198.748 34.5466 198.394 34.0096 197.863 33.6516C197.332 33.2936 196.624 33.1146 195.739 33.1146C194.854 33.1146 194.146 33.2936 193.438 33.6516C192.731 34.0096 192.377 34.3676 192.2 35.0835C191.846 35.6205 191.669 36.3365 191.669 37.0525C191.492 37.7685 191.492 38.4845 191.492 39.2005V50.8353H184.413V14.3198H190.784Z" fill="#212121"/>
<path d="M210.075 39.0215C210.075 37.2315 210.428 35.4415 211.136 34.0096C211.844 32.5776 212.729 31.1456 213.968 30.0716C215.207 28.9976 216.446 28.1026 218.039 27.5656C219.631 27.0286 221.224 26.6707 222.994 26.6707C224.764 26.6707 226.534 27.0286 227.949 27.5656C229.542 28.1026 230.958 28.9976 232.02 30.0716C233.082 31.1456 234.144 32.3986 234.852 34.0096C235.56 35.4415 235.913 37.2315 235.913 39.0215C235.913 40.8115 235.56 42.6014 234.852 44.0334C234.144 45.4654 233.259 46.8974 232.02 47.9714C230.781 49.0454 229.542 49.9403 227.949 50.4773C226.357 51.0143 224.764 51.3723 222.994 51.3723C221.224 51.3723 219.454 51.0143 218.039 50.4773C216.446 49.9403 215.03 49.0454 213.968 47.9714C212.729 46.8974 211.844 45.6444 211.136 44.0334C210.428 42.6014 210.075 40.9905 210.075 39.0215ZM217.331 39.0215C217.331 40.8115 217.862 42.2434 218.923 43.3174C219.985 44.3914 221.401 44.9284 223.171 44.9284C224.941 44.9284 226.357 44.3914 227.418 43.3174C228.48 42.2434 229.011 40.8115 229.011 39.0215C229.011 37.2315 228.48 35.7995 227.418 34.7255C226.357 33.6516 224.941 33.1146 223.171 33.1146C221.401 33.1146 219.985 33.6516 218.923 34.7255C217.862 35.7995 217.331 37.2315 217.331 39.0215Z" fill="#212121"/>
<path d="M240.869 27.2076H247.417V30.4296H247.594C247.948 30.0716 248.302 29.5346 248.656 29.1766C249.187 28.8186 249.718 28.2816 250.249 27.9236C250.957 27.5656 251.488 27.2076 252.196 27.0287C252.904 26.8497 253.788 26.6707 254.496 26.6707C256.266 26.6707 257.859 27.0286 259.098 27.5656C260.337 28.1026 261.753 28.9976 262.637 30.0716C263.699 31.1456 264.407 32.3986 264.938 33.8306C265.469 35.2625 265.823 36.8735 265.823 38.6635C265.823 40.2745 265.646 41.8855 265.115 43.3174C264.584 44.7494 263.876 46.1814 262.991 47.2554C262.107 48.3294 261.045 49.4034 259.629 50.1193C258.39 50.8353 256.797 51.1933 255.204 51.1933C253.788 51.1933 252.373 51.0143 250.957 50.4773C249.718 49.9403 248.656 49.2244 247.771 48.1504H247.594V61.7542H240.515V27.2076H240.869ZM247.417 39.0215C247.417 40.8115 247.948 42.2435 249.01 43.3174C250.072 44.3914 251.488 44.9284 253.258 44.9284C255.027 44.9284 256.443 44.3914 257.505 43.3174C258.567 42.2435 259.098 40.8115 259.098 39.0215C259.098 37.2315 258.567 35.7995 257.505 34.7255C256.443 33.6516 255.027 33.1146 253.258 33.1146C251.488 33.1146 250.072 33.6516 249.01 34.7255C247.948 35.7995 247.417 37.2315 247.417 39.0215Z" fill="#212121"/>
<path d="M86.0113 26.6707C89.5509 42.2435 70.9681 60.5012 55.0399 69.0931C39.1118 77.685 25.8383 76.432 15.3965 69.2721C5.13174 62.1122 -2.47837 48.8664 0.707257 34.0096C3.89289 18.9738 17.5203 2.14799 37.165 0.17902C56.8097 -1.78995 82.4717 11.0979 86.0113 26.6707Z" fill="#3A0751"/>
<path d="M47.4305 16.1098H36.6347V21.4797H47.4305V16.1098Z" fill="white"/>
<path d="M59.1111 44.9284H25.308V50.2983H59.1111V44.9284Z" fill="white"/>
<path d="M58.9341 41.5275H53.6247C53.6247 35.0836 48.4923 29.8926 42.1211 29.8926C35.7498 29.8926 30.6174 35.0836 30.6174 41.5275H25.308C25.308 32.2196 32.9182 24.5227 42.1211 24.5227C51.324 24.5227 58.9341 32.2196 58.9341 41.5275Z" fill="white"/>
</g>
<defs>
<clipPath id="clip0">
<rect width="266" height="75" fill="white"/>
</clipPath>
</defs>
</svg>
