<svg width="49" height="36" viewBox="0 0 49 36" fill="none" xmlns="http://www.w3.org/2000/svg">
<path d="M47.7897 0.530694C37.9986 1.17484 26.5327 8.38932 26.5327 21.4012C26.5327 29.3886 30.6553 35.3148 37.9986 35.3148C43.1518 35.3148 47.6608 30.9346 47.6608 25.9102C47.7897 20.3705 43.9248 16.8921 39.6734 16.8921C37.9986 16.8921 35.9373 17.5363 34.7778 18.3092C34.1337 18.6957 33.6184 18.6957 33.6184 17.9227C33.6184 11.2236 39.8022 5.55507 48.5626 4.00911L47.7897 0.530694ZM21.5083 0.530694C11.5884 1.17484 0.25139 8.38932 0.25139 21.4012C0.25139 29.3886 4.24512 35.3148 11.7173 35.3148C16.8705 35.3148 21.3795 30.9346 21.3795 25.9102C21.3795 20.3705 17.6434 16.8921 13.3921 16.8921C11.7173 16.8921 9.65598 17.5363 8.36768 18.3092C7.85236 18.6957 7.20821 18.6957 7.20821 17.9227C7.20821 11.2236 13.5209 5.55507 22.2813 4.00911L21.5083 0.530694Z" fill="#212121"/>
</svg>
