<svg width="20" height="20" viewBox="0 0 20 20" fill="none" xmlns="http://www.w3.org/2000/svg">
<path d="M10.1113 0.111084C8.13352 0.111084 6.20012 0.697574 4.55563 1.79639C2.91114 2.8952 1.62941 4.45699 0.872537 6.28425C0.115661 8.11151 -0.0823724 10.1222 0.30348 12.062C0.689332 14.0018 1.64174 15.7836 3.04026 17.1821C4.43879 18.5807 6.22062 19.5331 8.16043 19.9189C10.1002 20.3048 12.1109 20.1068 13.9382 19.3499C15.7654 18.593 17.3272 17.3113 18.426 15.6668C19.5248 14.0223 20.1113 12.0889 20.1113 10.1111C20.1113 7.45892 19.0578 4.91538 17.1824 3.04002C15.307 1.16465 12.7635 0.111084 10.1113 0.111084ZM16.6426 6.75483L8.43008 14.9611L3.58008 10.1111C3.41432 9.94532 3.3212 9.7205 3.3212 9.48608C3.3212 9.25166 3.41432 9.02684 3.58008 8.86108C3.74584 8.69532 3.97066 8.6022 4.20508 8.6022C4.4395 8.6022 4.66432 8.69532 4.83008 8.86108L8.44258 12.4736L15.4051 5.51733C15.4872 5.43526 15.5846 5.37015 15.6918 5.32573C15.7991 5.28131 15.914 5.25845 16.0301 5.25845C16.1462 5.25845 16.2611 5.28131 16.3683 5.32573C16.4756 5.37015 16.573 5.43526 16.6551 5.51733C16.7372 5.59941 16.8023 5.69685 16.8467 5.80409C16.8911 5.91132 16.914 6.02626 16.914 6.14233C16.914 6.25841 16.8911 6.37334 16.8467 6.48058C16.8023 6.58782 16.7372 6.68526 16.6551 6.76733L16.6426 6.75483Z" fill="#2F6C30"/>
</svg>
