<?xml version="1.0" standalone="no"?>
<!DOCTYPE svg PUBLIC "-//W3C//DTD SVG 20010904//EN"
 "http://www.w3.org/TR/2001/REC-SVG-20010904/DTD/svg10.dtd">
<svg version="1.0" xmlns="http://www.w3.org/2000/svg"
 width="172.000000pt" height="172.000000pt" viewBox="0 0 172.000000 172.000000"
 preserveAspectRatio="xMidYMid meet">
<metadata>
Created by potrace 1.11, written by Peter Selinger 2001-2013
</metadata>
<g transform="translate(0.000000,172.000000) scale(0.100000,-0.100000)"
fill="#000000" stroke="none">
<path d="M828 1534 c-34 -57 -133 -229 -533 -924 -103 -179 -199 -345 -213
-370 -14 -25 -26 -47 -26 -50 -1 -3 119 -5 266 -6 l266 0 93 160 c51 89 111
193 133 233 23 40 43 73 46 73 3 0 20 -26 38 -57 46 -83 82 -146 142 -248 29
-49 62 -106 72 -126 l20 -36 266 2 c147 1 268 3 269 4 1 0 -46 83 -103 183
-58 100 -116 200 -128 223 -13 22 -140 243 -283 490 -143 248 -267 463 -275
479 l-15 29 -35 -59z"/>
</g>
</svg>
