<?xml version="1.0" encoding="utf-8"?>
<!-- Generator: Adobe Illustrator 24.1.3, SVG Export Plug-In . SVG Version: 6.00 Build 0)  -->
<svg version="1.1" xmlns="http://www.w3.org/2000/svg" xmlns:xlink="http://www.w3.org/1999/xlink" x="0px" y="0px"
	 viewBox="0 0 2400 511" style="enable-background:new 0 0 2400 511;" xml:space="preserve">
<style type="text/css">
	.st0{fill:none;}
	.st1{fill:#FFFFFF;}
</style>
<g id="Background">
	<rect x="-300" y="-736" class="st0" width="3000" height="2000"/>
</g>
<g id="Logo">
	<g id="Icon">
		<g>
			<rect x="149.73" y="-0.28" class="st1" width="141.61" height="69.34"/>
		</g>
		<g>
			<rect y="375.58" class="st1" width="446.1" height="69.34"/>
		</g>
		<g>
			<path class="st1" d="M443.36,333h-69.34c0-83.67-68.07-151.74-151.74-151.74S70.53,249.33,70.53,333H1.18
				c0-121.91,99.18-221.09,221.09-221.09S443.36,211.09,443.36,333z"/>
		</g>
	</g>
	<g id="Wordmark">
		<path class="st1" d="M971.69,312.19c0,62.26-47.21,98.06-139.05,98.06H659.36V47.07h162.91c83.53,0,130.23,35.28,130.23,93.91
			c0,39.43-20.23,66.93-48.77,80.94C944.71,233.33,971.69,263.94,971.69,312.19z M711.24,89.09v116.22H817.6
			c52.92,0,83.01-19.72,83.01-58.11c0-38.39-30.09-58.11-83.01-58.11H711.24z M919.29,308.04c0-42.03-31.13-60.7-88.72-60.7H711.24
			v120.89h119.33C888.16,368.22,919.29,350.07,919.29,308.04z"/>
		<path class="st1" d="M1255.49,289.36h-223.1c6.23,48.25,45.14,80.42,99.62,80.42c32.17,0,59.15-10.9,79.38-33.21l27.5,32.17
			c-24.9,29.05-62.78,44.62-108.44,44.62c-88.72,0-147.87-58.63-147.87-140.6c0-81.46,58.63-140.08,138.01-140.08
			s135.93,57.07,135.93,141.64C1256.52,278.47,1256,284.69,1255.49,289.36z M1032.39,253.56h176.4
			c-5.19-46.18-39.95-78.86-88.2-78.86C1072.86,174.7,1037.58,206.87,1032.39,253.56z"/>
		<path class="st1" d="M1288.69,25.28h49.81v384.97h-49.81V25.28z"/>
		<path class="st1" d="M1396.6,25.28h49.81v384.97h-49.81V25.28z"/>
		<path class="st1" d="M1765.48,252.01v158.24h-49.81V257.71c0-53.96-26.98-80.42-74.19-80.42c-52.92,0-87.16,31.65-87.16,91.31
			v141.64h-49.81V25.28h49.81v148.9c20.75-26.46,55-41.51,97.02-41.51C1718.27,132.68,1765.48,171.07,1765.48,252.01z"/>
		<path class="st1" d="M1797.13,272.76c0-81.97,60.7-140.08,143.2-140.08c82.49,0,142.68,58.11,142.68,140.08
			c0,81.98-60.18,140.6-142.68,140.6C1857.83,413.36,1797.13,354.74,1797.13,272.76z M2032.67,272.76c0-58.63-39.43-96.5-92.35-96.5
			c-52.92,0-92.87,37.87-92.87,96.5c0,58.63,39.95,97.02,92.87,97.02C1993.24,369.78,2032.67,331.39,2032.67,272.76z"/>
		<path class="st1" d="M2400,272.76c0,84.57-58.63,140.6-139.05,140.6c-38.91,0-73.16-15.05-95.98-44.62V510.9h-49.81V135.27h47.73
			v43.58c22.31-30.61,57.59-46.18,98.06-46.18C2341.37,132.68,2400,188.71,2400,272.76z M2349.67,272.76
			c0-58.11-39.95-96.5-92.87-96.5c-52.4,0-92.35,38.39-92.35,96.5c0,58.63,39.95,97.02,92.35,97.02
			C2309.72,369.78,2349.67,331.39,2349.67,272.76z"/>
	</g>
</g>
</svg>
