<svg width="260" height="77" viewBox="0 0 260 77" fill="none" xmlns="http://www.w3.org/2000/svg">
<g clip-path="url(#clip0)">
<path d="M88.0654 47.1828C86.8423 58.2329 77.5815 69.4585 65.5251 73.1418C58.8853 75.0712 48.2267 77.5268 37.9175 77.0006C23.939 76.299 11.7079 65.9505 4.89334 52.971C0.175598 43.8503 -0.872789 34.0279 0.699792 24.9072C2.9713 11.2261 12.0573 4.21017 20.4444 1.22839C26.7347 -1.05179 43.1595 0.351398 52.4202 1.57919C62.3799 2.98238 73.0385 7.54274 80.5519 17.3651C87.1917 26.3104 89.2885 37.0097 88.0654 47.1828Z" fill="#3A0751"/>
<path d="M49.2742 18.2415H38.6156V23.5034H49.2742V18.2415Z" fill="white"/>
<path d="M60.8064 46.6561H27.4328V51.918H60.8064V46.6561Z" fill="white"/>
<path d="M60.6317 43.3235H55.3898C55.3898 37.0091 50.3226 31.9225 44.0323 31.9225C37.7419 31.9225 32.6747 37.0091 32.6747 43.3235H27.4328C27.4328 34.2027 34.9462 26.6606 44.0323 26.6606C53.1183 26.6606 60.6317 34.2027 60.6317 43.3235Z" fill="white"/>
<path d="M97.3253 18.9431H109.731C111.129 18.9431 112.702 19.1185 114.099 19.2939C115.497 19.4692 116.895 19.9954 118.118 20.5216C119.341 21.2232 120.215 21.9248 120.914 23.1526C121.613 24.205 121.962 25.7836 121.962 27.5376C121.962 29.467 121.438 31.0456 120.39 32.2733C119.341 33.5011 117.944 34.3781 116.196 34.9043V35.0797C117.245 35.2551 118.293 35.6059 119.167 35.9567C120.04 36.4829 120.914 37.0091 121.438 37.7107C122.137 38.4123 122.661 39.2893 123.011 40.1663C123.36 41.0433 123.535 42.0957 123.535 43.1481C123.535 44.9021 123.185 46.3052 122.487 47.533C121.788 48.7608 120.739 49.6378 119.516 50.3394C118.293 51.041 116.895 51.5672 115.497 51.918C113.925 52.2688 112.527 52.4442 110.954 52.4442H97.3253V18.9431ZM104.664 32.4487H110.081C110.605 32.4487 111.129 32.4487 111.828 32.2733C112.352 32.098 112.876 31.9226 113.401 31.5718C113.925 31.221 114.274 30.8702 114.449 30.5194C114.798 29.9932 114.798 29.467 114.798 28.7654C114.798 28.0638 114.624 27.5376 114.274 27.0114C113.925 26.4852 113.575 26.1344 113.051 25.959C112.527 25.7836 112.003 25.6082 111.478 25.4328C110.954 25.2574 110.255 25.2574 109.731 25.2574H104.664V32.4487ZM104.664 46.3052H111.304C111.828 46.3052 112.527 46.3052 113.051 46.1298C113.575 45.9544 114.099 45.779 114.624 45.4282C115.148 45.0774 115.497 44.7267 115.847 44.2005C116.196 43.6743 116.371 43.1481 116.371 42.2711C116.371 41.5695 116.196 40.8679 115.847 40.3417C115.497 39.8155 114.973 39.4647 114.274 39.2893C113.75 39.1139 113.051 38.9385 112.352 38.7631C111.653 38.5877 110.954 38.5877 110.43 38.5877H104.839V46.3052H104.664Z" fill="#212121"/>
<path d="M148.696 48.5854C147.648 49.9886 146.075 51.2164 144.328 51.918C142.581 52.6196 140.833 53.1458 138.911 53.1458C137.164 53.1458 135.417 52.795 134.019 52.2688C132.446 51.7426 131.048 50.8656 130 49.8132C128.777 48.7608 127.903 47.533 127.204 45.9544C126.505 44.5512 126.156 42.7973 126.156 41.0433C126.156 39.2893 126.505 37.5353 127.204 36.1321C127.903 34.7289 128.777 33.3257 130 32.2733C131.223 31.2209 132.446 30.344 134.019 29.8178C135.591 29.2916 137.164 28.9408 138.911 28.9408C140.484 28.9408 142.056 29.2916 143.454 29.8178C144.852 30.344 145.901 31.2209 146.774 32.2733C147.648 33.3257 148.347 34.5535 148.871 36.1321C149.395 37.5353 149.57 39.2893 149.57 41.0433V43.3235H133.145C133.495 44.7266 134.019 45.779 135.067 46.4806C136.116 47.1822 137.164 47.7084 138.562 47.7084C139.785 47.7084 140.659 47.533 141.532 47.0068C142.406 46.4806 143.105 45.779 143.629 45.0774L148.696 48.5854ZM142.755 38.4123C142.755 37.1845 142.406 36.1321 141.532 35.2551C140.659 34.3781 139.61 34.0273 138.387 34.0273C137.688 34.0273 136.989 34.2027 136.29 34.3781C135.766 34.5535 135.242 34.9043 134.718 35.4305C134.368 35.7813 134.019 36.3075 133.669 36.8337C133.495 37.3599 133.32 37.8861 133.32 38.4123H142.755Z" fill="#212121"/>
<path d="M154.113 16.6629H161.102V52.6196H154.113V16.6629Z" fill="#212121"/>
<path d="M166.344 16.6629H173.508V52.6196H166.344V16.6629Z" fill="#212121"/>
<path d="M185.739 16.6629V32.6242H185.914C186.089 32.098 186.263 31.7472 186.788 31.221C187.137 30.6948 187.661 30.344 188.185 29.9932C188.71 29.6424 189.409 29.2916 190.108 29.1162C190.806 28.9408 191.68 28.7654 192.554 28.7654C194.301 28.7654 195.874 29.1162 196.922 29.6424C197.97 30.1686 198.844 31.0456 199.543 31.9226C200.242 32.9749 200.591 34.0273 200.766 35.4305C200.941 36.8337 201.116 38.2369 201.116 39.8155V52.6196H194.126V41.3941C194.126 40.6925 194.126 39.9909 194.126 39.2893C194.126 38.5877 193.952 37.8861 193.777 37.3599C193.602 36.8337 193.253 36.3075 192.728 35.9567C192.204 35.6059 191.505 35.4305 190.632 35.4305C189.758 35.4305 189.059 35.6059 188.36 35.9567C187.661 36.3075 187.312 36.6583 187.137 37.3599C186.788 37.8861 186.613 38.5877 186.613 39.2893C186.438 39.9909 186.438 40.6925 186.438 41.3941V52.6196H179.449V16.6629H185.739Z" fill="#212121"/>
<path d="M204.785 41.0433C204.785 39.2893 205.134 37.5353 205.833 36.1321C206.532 34.7289 207.406 33.3257 208.629 32.2733C209.852 31.2209 211.075 30.344 212.648 29.8178C214.22 29.2916 215.793 28.9408 217.54 28.9408C219.288 28.9408 221.035 29.2916 222.433 29.8178C224.005 30.344 225.403 31.2209 226.452 32.2733C227.5 33.3257 228.548 34.5535 229.247 36.1321C229.946 37.5353 230.296 39.2893 230.296 41.0433C230.296 42.7973 229.946 44.5512 229.247 45.9544C228.548 47.3576 227.675 48.7608 226.452 49.8132C225.228 50.8656 224.005 51.7426 222.433 52.2688C220.86 52.795 219.288 53.1458 217.54 53.1458C215.793 53.1458 214.046 52.795 212.648 52.2688C211.075 51.7426 209.677 50.8656 208.629 49.8132C207.406 48.7608 206.532 47.533 205.833 45.9544C205.134 44.5512 204.785 42.7973 204.785 41.0433ZM211.949 41.0433C211.949 42.7973 212.473 44.2004 213.521 45.2528C214.57 46.3052 215.968 46.8314 217.715 46.8314C219.462 46.8314 220.86 46.3052 221.909 45.2528C222.957 44.2004 223.481 42.7973 223.481 41.0433C223.481 39.2893 222.957 37.8861 221.909 36.8337C220.86 35.7813 219.462 35.2551 217.715 35.2551C215.968 35.2551 214.57 35.7813 213.521 36.8337C212.473 37.8861 211.949 39.2893 211.949 41.0433Z" fill="#212121"/>
<path d="M235.188 29.467H241.653V32.4488H241.828C242.177 32.098 242.527 31.5718 242.876 31.221C243.401 30.8702 243.925 30.344 244.449 29.9932C245.148 29.6424 245.672 29.2916 246.371 29.1162C247.07 28.9408 247.944 28.7654 248.642 28.7654C250.39 28.7654 251.962 29.1162 253.185 29.6424C254.409 30.1686 255.806 31.0456 256.68 32.098C257.728 33.1503 258.427 34.3781 258.952 35.7813C259.476 37.1845 259.825 38.7631 259.825 40.5171C259.825 42.0957 259.65 43.6743 259.126 45.0775C258.602 46.4806 257.903 47.8838 257.03 48.9362C256.156 49.9886 255.107 51.041 253.71 51.7426C252.487 52.4442 250.914 52.795 249.341 52.795C247.944 52.795 246.546 52.6196 245.148 52.0934C243.925 51.5672 242.876 50.8656 242.003 49.8132H241.828V63.1435H234.839V29.467H235.188ZM241.653 41.0433C241.653 42.7973 242.177 44.2005 243.226 45.2528C244.274 46.3052 245.672 46.8314 247.419 46.8314C249.167 46.8314 250.564 46.3052 251.613 45.2528C252.661 44.2005 253.185 42.7973 253.185 41.0433C253.185 39.2893 252.661 37.8861 251.613 36.8337C250.564 35.7813 249.167 35.2551 247.419 35.2551C245.672 35.2551 244.274 35.7813 243.226 36.8337C242.177 37.8861 241.653 39.2893 241.653 41.0433Z" fill="#212121"/>
</g>
<defs>
<clipPath id="clip0">
<rect width="260" height="77" fill="white"/>
</clipPath>
</defs>
</svg>
